<?xml version="1.0" encoding="utf-8"?>
<!-- Generator: Adobe Illustrator 13.0.0, SVG Export Plug-In . SVG Version: 6.00 Build 14948)  -->
<!DOCTYPE svg PUBLIC "-//W3C//DTD SVG 1.0//EN" "http://www.w3.org/TR/2001/REC-SVG-20010904/DTD/svg10.dtd">
<svg version="1" id="Layer_1" xmlns="http://www.w3.org/2000/svg" xmlns:xlink="http://www.w3.org/1999/xlink" x="0px" y="0px"
	 width="693.6px" height="419.4px" viewBox="0 0 693.615 419.375" enable-background="new 0 0 693.615 419.375"
	 xml:space="preserve">
	<g id="Layer_2">
		<g>
			<path d="M 148.7 221.2 l 8.7 25.5 c 4.7 13.8 8.9 24.8 9.4 24.8 c 0 0 0 0 0 0 c 0.6 -0.5 17.6 -49.8 17.6 -49.8 h 32.9 l -39.7 115.6 h -22.9 c 0 0 -24.4 -70.5 -24.3 -70.7 l -25.5 69.9 h -22.6 l -39.2 -115.2 l 32.7 0 c 0 0 17.9 50.8 18.2 50.8 c 0 0 0 0 0 0 l 17.9 -50.8 H 148.7 M 32 213.2 l 3.6 10.6 l 39.2 115.1 l 1.8 5.4 h 5.7 h 22.6 h 5.6 l 1.9 -5.3 l 17.7 -48.5 c 1.5 4.4 3.2 9.2 4.8 14 c 6.1 17.7 12.2 35.3 12.2 35.3 l 1.9 5.4 h 5.7 h 22.9 h 5.7 l 1.9 -5.4 l 39.7 -115.6 l 3.6 -10.6 h -11.2 h -32.9 h -5.7 l -1.9 5.4 c -3 8.6 -6.9 20 -10.3 29.7 c -0.5 -1.5 -1 -3 -1.6 -4.6 l -8.7 -25.5 l -1.8 -5.4 h -5.7 h -36.8 h -5.7 l -1.9 5.3 l -10.5 29.7 c -3.5 -9.7 -7.5 -21 -10.5 -29.7 l -1.9 -5.3 l -5.7 0 l -32.7 0 L 32 213.2 L 32 213.2 z" fill="#ffe81f"/>
		</g>
		<g>
			<path d="M 655.3 220.8 l -0.1 30.3 c 0 0 -32.6 -0.1 -49.2 -0.1 c -5.5 0 -9.3 0 -9.4 0 c -2.9 0.5 -4.7 6.6 -3.9 9.3 c 0.4 1.4 3.4 5.8 6.6 9.8 c 3.2 4.1 8.5 10.7 11.8 14.7 c 8.3 10.4 9.5 12.4 10.2 18.4 c 1.3 9.7 -3.3 20.2 -11.8 27.1 c -8.5 6.9 -8.1 7 -71.4 7 c -0.9 0 -1.8 0 -2.8 0 c -38.5 0 -58.8 -0.3 -61.8 -1 c -5.3 -1.2 -13.6 -8 -35.8 -29.3 c -8 -7.6 -15.3 -14.3 -15.7 -14.3 c 0 0 0 0 0 0 l -0.3 44.6 l -35.9 -0.2 l -0.2 -115 h 45.3 h 34.8 c 24.1 0.9 40.5 24.9 37.2 40.2 c -0.7 3.5 -2.6 8.5 -4.2 11.2 c -3.2 5.5 -11.4 12.6 -18 15.6 c -2.4 1.1 -4.4 2.4 -4.4 2.9 c 0 1.7 8.1 9.6 11.1 10.9 c 2.6 1.1 10.1 1.3 43.2 1.3 c 3.9 0 7.4 0 10.6 0 c 33.3 0 31.6 -0.2 34.2 -5.7 c 1.8 -3.8 0.4 -6.1 -12.2 -20.4 c -16.1 -16 -14.4 -23.6 -14.5 -29.3 c -0.2 -6.8 5.1 -28.1 32.8 -28.1 L 655.3 220.8 M 440.2 273.9 c 15.4 0 18.5 -0.2 21.8 -1.7 c 11 -4.8 11.6 -19 1 -25.3 c -2.3 -1.4 -5.3 -1.6 -22 -1.7 l -19.3 -0.1 c 0.2 0.1 -0.1 27.6 -0.1 27.6 S 426.5 273.9 440.2 273.9 M 663.3 212.8 h -8 h -73.8 c -16 0 -25.5 6.3 -30.6 11.6 c -8.3 8.6 -10.3 19.5 -10.2 24.6 c 0 0.4 0 0.9 0 1.3 c -0.1 8.3 1.2 17.8 16.7 33.2 c 3.1 3.5 8.2 9.2 10.1 12.1 c -4.2 0.5 -15 0.5 -26.3 0.5 h -4.8 l -5.8 0 c -19.9 0 -36.7 -0.1 -40.1 -0.7 c -0.5 -0.3 -1.2 -0.9 -1.9 -1.5 c 6.9 -4.2 13.8 -10.8 17.1 -16.4 c 2 -3.4 4.2 -9.2 5.1 -13.6 c 2 -9.6 -1.3 -21.2 -9 -31.1 c -9 -11.5 -22 -18.3 -35.7 -18.8 l -0.1 0 h -0.1 h -34.8 h -45.3 h -8 l 0 8 l 0.2 115 l 0 7.9 l 7.9 0 l 35.9 0.2 l 8 0 l 0 -8 l 0.2 -26.7 c 0.7 0.7 1.5 1.4 2.3 2.2 c 24.2 23.2 32.4 29.7 39.6 31.3 c 2 0.4 5.3 1.2 63.5 1.2 h 2.8 c 31.5 0 47.4 0 56.8 -0.9 c 10.8 -1 14.3 -3.5 19.5 -7.7 l 0.2 -0.1 c 10.7 -8.7 16.3 -21.8 14.7 -34.3 c -1 -8.1 -3.2 -11.5 -11.9 -22.4 l -2.6 -3.2 c -3 -3.8 -6.7 -8.4 -9.2 -11.5 c -2 -2.5 -3.5 -4.7 -4.5 -6.1 c 1.2 0 2.8 0 4.9 0 c 16.4 0 48.9 0.1 49.2 0.1 l 8 0 l 0 -8 l 0.1 -30.3 L 663.3 212.8 L 663.3 212.8 z M 429.7 265.6 c 0 -2 0 -4.3 0 -6.6 c 0 -2 0 -4 0 -5.8 l 11.2 0.1 c 6.4 0 16.1 0.1 18 0.6 c 2.4 1.5 3.8 3.7 3.6 6.1 c -0.1 1.3 -0.7 3.6 -3.8 5 c -1.8 0.8 -4.5 1 -18.6 1 C 435.7 265.9 432.3 265.7 429.7 265.6 L 429.7 265.6 z" fill="#ffe81f"/>
		</g>
		<g>
			<path d="M 312.9 220.3 l 40.3 115.9 l -32.8 0.1 l -5.5 -17.4 l -58.7 -0.5 l -5.2 17.4 l -32.5 -0.3 l 39.8 -115.2 L 312.9 220.3 M 286.5 237.3 c -0.1 0.3 -5.1 14.2 -10.2 28.1 c -5.1 14 -10.3 28 -10.3 28.1 c 0 0 0 0 0 0 l 0 0 c 0 0 0 0 0 0 c 0.1 0 18.3 -0.1 30 -0.1 c 5.5 0 9.5 0 9.6 0 c 0 0 0 0 0 0 s 0 0 0 0 c 0 0 0 0 0 0 C 305.3 292.9 286.6 238 286.5 237.3 c 0 0 0 0 0 0 l 0 0 C 286.5 237.3 286.5 237.3 286.5 237.3 M 318.6 212.3 l -5.7 0 l -54.6 0.1 l -5.7 0 l -1.9 5.4 l -39.8 115.2 l -3.6 10.5 l 11.1 0.1 l 32.5 0.3 l 6 0.1 l 1.7 -5.8 l 3.5 -11.7 l 46.9 0.4 l 3.7 11.8 l 1.8 5.6 l 5.9 0 l 32.8 -0.1 l 11.2 -0.1 l -3.7 -10.6 l -40.3 -115.9 L 318.6 212.3 L 318.6 212.3 z M 277.5 285.4 c 1.5 -4.1 3.6 -9.7 6.3 -17.3 c 0.9 -2.4 1.7 -4.6 2.4 -6.5 c 0.7 2 1.4 4.1 2.2 6.4 c 0.6 1.9 3.5 10.3 5.9 17.4 C 287 285.4 281.6 285.4 277.5 285.4 L 277.5 285.4 z" fill="#ffe81f"/>
		</g>
		<g>
			<path d="M 326.5 81.9 v 28.6 h -57.3 v 87.5 h -34.1 v -87.5 l -66.9 0.2 c -8.1 0 -9.1 6.4 -9.1 8.9 c 0 3 2 6 12.8 19.7 c 7 8.9 13.5 17.8 14.3 19.7 c 4.6 10.7 -1.4 27.3 -12.3 34.1 c -7.8 4.8 -6.5 4.9 -64.3 4.9 c -3 0 -6.1 0 -9.4 0 h -62.3 v -32.1 h 97.9 l 2.9 -2 c 1.9 -1.4 3.1 -3.2 3.5 -5.8 c 0.6 -3.7 0.3 -4.2 -11.8 -17.8 c -14.3 -16.1 -15.8 -19 -15.1 -29.3 c 0.8 -11.7 11.3 -28.8 29.6 -28.8 L 326.5 81.9 M 334.5 73.9 l -8 0 l -181.6 0.3 c -10.5 0 -20.2 4.5 -27.3 12.7 c -5.8 6.7 -9.6 15.4 -10.2 23.5 c -1 13.5 2.1 18.4 17.1 35.2 c 4.3 4.9 8.4 9.5 9.8 11.5 c 0 0.1 0 0.1 -0.1 0.2 c 0 0 0 0 -0.1 0.1 l -0.8 0.6 H 37.9 h -8 v 8 v 32.1 v 8 h 8 h 62.3 h 4.9 h 4.5 c 28.5 0 42.6 0 50.9 -0.6 c 9.5 -0.7 12.5 -2.3 17.1 -5.1 l 0.6 -0.4 c 14.3 -8.8 21.6 -29.8 15.4 -44.1 c -1.9 -4.4 -14 -19.7 -15.4 -21.5 c -3.8 -4.8 -10.1 -12.7 -11.1 -15 c 0 -0.2 0.1 -0.4 0.1 -0.5 c 0.2 0 0.5 -0.1 1 -0.1 l 58.9 -0.2 v 79.5 v 8 h 8 h 34.1 h 8 v -8 v -79.5 h 49.3 h 8 v -8 v -28.6 V 73.9 L 334.5 73.9 z" fill="#ffe81f"/>
		</g>
		<g>
			<path d="M 419.5 82.9 l 40.2 116.2 l -32.8 -0.2 l -5.3 -17.4 l -58.4 -0.3 l -5.2 16.8 h -33.4 l 39.7 -115.1 H 419.5 M 372.7 156.5 l 39.8 -0.1 c 0 0 0 0 0 0 c 0.1 0 -19.3 -57.2 -19.5 -57.2 l 0 0 C 392.9 99.2 372.3 156.5 372.7 156.5 M 425.2 74.9 h -5.7 h -55.2 h -5.7 l -1.9 5.4 l -39.7 115.1 l -3.7 10.6 h 11.2 h 33.4 h 5.9 l 1.8 -5.6 l 3.5 -11.1 l 46.6 0.2 l 3.6 11.8 l 1.7 5.6 l 5.9 0 l 32.8 0.2 l 11.3 0.1 l -3.7 -10.7 l -40.2 -116.2 L 425.2 74.9 L 425.2 74.9 z M 383.9 148.5 c 2.5 -7 5.9 -16.7 9 -25.3 c 2.9 8.6 6.2 18.2 8.6 25.3 L 383.9 148.5 L 383.9 148.5 z" fill="#ffe81f"/>
		</g>
		<g>
			s<path d="M 532.4 82.9 c 25.9 0 43.9 0.4 47.4 1 c 8 1.4 15.2 5.7 20.6 12.2 c 5.7 6.9 7 10.1 7.7 19.5 c 1.1 13.3 -5.3 24.7 -17.7 32.1 c -3.6 2.2 -7.4 4.3 -8.3 4.7 c -1.4 0.7 -1.2 1.3 1.3 4.3 c 1.6 1.9 4.5 4.7 6.3 6.1 l 3.4 2.6 l 62.1 0.9 l 0.6 31.7 h -38.1 c -29.4 0 -38.9 -0.3 -41.6 -1.2 c -4.1 -1.4 -14.1 -9.8 -34.3 -29 l -14.4 -13.7 l 0.2 44 h -37 V 82.9 H 532.4 M 526.9 134.6 h 19.7 c 19.1 0 19.7 -0.1 22.5 -2.1 c 4.9 -3.7 6.6 -7.4 6.1 -13.2 c -0.5 -6 -2.8 -9.1 -8.6 -11.6 c -3.3 -1.4 -6.4 -1.6 -21.7 -1.6 h -17.9 V 134.6 M 532.4 74.9 h -41.8 h -8 v 8 v 115.1 v 8 h 8 h 37 h 8 l 0 -8 l -0.1 -25.2 l 0.8 0.8 c 25 23.8 32.4 29.2 37.2 30.8 c 3.7 1.3 10 1.6 44.2 1.6 h 38.1 h 8.2 l -0.2 -8.2 l -0.6 -31.7 l -0.1 -7.7 l -7.7 -0.1 l -59.4 -0.9 l -1.2 -1 c -0.4 -0.3 -0.9 -0.7 -1.4 -1.2 c 0.4 -0.3 0.9 -0.5 1.2 -0.7 c 15 -9 22.9 -23.4 21.6 -39.7 c -0.9 -11 -2.8 -15.9 -9.5 -24 c -6.6 -8 -15.6 -13.3 -25.4 -15 C 575.7 75 548.3 74.9 532.4 74.9 L 532.4 74.9 z M 534.9 114.1 h 9.9 c 14 0 16.8 0.2 18.5 1 c 3.3 1.4 3.6 2.1 3.8 5 c 0.3 2.8 -0.1 4 -2.9 6.1 c -0.1 0.1 -0.2 0.1 -0.2 0.2 c -1.9 0.3 -8.8 0.3 -17.4 0.3 h -11.7 L 534.9 114.1 L 534.9 114.1 z" fill="#ffe81f"/>
		</g>
	</g>
</svg>
